<svg id="Layer_1" data-name="Layer 1" xmlns="http://www.w3.org/2000/svg" viewBox="0 0 425.2 72.93"><defs><style>.cls-1{fill:#c6e09f;}</style></defs><path class="cls-1" d="M0,1.21H27.21c11.77,0,21.06,7.59,21.06,18,0,6.77-3.56,12-9.61,14.16,9.93,1.72,15.12,8.7,15.12,17.5,0,11.93-9.72,20.83-22.9,20.83H0ZM25.38,29.64c5.72,0,9.72-3.65,9.72-8.7,0-4.66-4-8.3-9.61-8.3h-12v17Zm3.24,30.64c6.8,0,11.77-4.35,11.77-10.11s-4.86-9.91-11.88-9.91h-15v20Z"/><path class="cls-1" d="M77.1,1.21h29.26c13.39,0,24.41,9.61,24.41,22.36a21.21,21.21,0,0,1-13.72,20L135.3,71.71H120.08L104,46.63H90.6V71.71H77.1ZM105,35.3c7.34,0,12.42-4.75,12.42-11.53,0-6.47-4.86-11.13-11.34-11.13H90.6V35.3Z"/><path class="cls-1" d="M163.74,56c5,0,9,3.84,9,8.39s-4,8.29-9,8.29a8.35,8.35,0,1,1,0-16.68Zm-3.68-13.46-4.21-28.22V2.83A2.06,2.06,0,0,1,157.9.91h11.88a2.06,2.06,0,0,1,2.05,1.92V14.16l-4.21,28.42a2.15,2.15,0,0,1-2.05,1.62h-3.45A2.17,2.17,0,0,1,160.06,42.58Z"/><path class="cls-1" d="M232.2,0a40.28,40.28,0,0,1,28,10.62l-9,7.69c-4.85-4.45-11.55-6.88-19-6.88-15.12,0-26.57,10.82-26.57,25.08s11.45,25,26.57,25a28,28,0,0,0,18-6.07v-13H229.28V31.25H263V59.68c-7,8.09-18.15,13.25-30.78,13.25-22.14,0-40-15.38-40-36.42S210.06,0,232.2,0Z"/><path class="cls-1" d="M287.59,1.21h13.5V28.73h36.17V1.21h13.4v70.5h-13.4V40.16H301.09V71.71h-13.5Z"/><path class="cls-1" d="M391.29,12.64H370.88V1.21H425.2V12.64H404.79V71.71h-13.5Z"/></svg>